<svg width="1000" height="1000" viewBox="0 0 1000 1000" xmlns="http://www.w3.org/2000/svg"><defs/><path fill="#ffffff" transform="matrix(0.257718070090513 0 0 0.257718070090513 38.079063004356684 9.100052591323475)" d="M 684.87663786375 2024.14444160151 L 583.77663786375 2024.14444160151 L 566.37663786375 2057.84444160151 C 562.17663786375 2066.04444160151 566.17663786375 2072.74444160151 575.37663786375 2072.74444160151 L 693.17663786375 2072.74444160151 C 702.37663786375 2072.74444160151 706.47663786375 2066.14444160151 702.17663786375 2057.84444160151 L 684.87663786375 2024.14444160151 Z"/><path fill="#ffffff" transform="matrix(0.257718070090513 0 0 0.257718070090513 38.079063004356684 9.100052591323475)" d="M 826.77663786375 1736.84444160151 L 441.87663786375 1736.84444160151 C 437.67663786375 1736.84444160151 434.27663786375 1740.24444160151 434.27663786375 1744.44444160151 L 434.27663786375 1995.94444160151 C 434.27663786375 2000.14444160151 437.67663786375 2003.54444160151 441.87663786375 2003.54444160151 L 826.77663786375 2003.54444160151 C 830.97663786375 2003.54444160151 834.37663786375 2000.14444160151 834.37663786375 1995.94444160151 L 834.37663786375 1744.54444160151 C 834.47663786375 1740.34444160151 830.97663786375 1736.84444160151 826.77663786375 1736.84444160151 Z M 758.97663786375 1987.64444160151 C 755.67663786375 1987.64444160151 753.07663786375 1984.94444160151 753.07663786375 1981.74444160151 C 753.07663786375 1978.54444160151 755.77663786375 1975.84444160151 758.97663786375 1975.84444160151 C 762.27663786375 1975.84444160151 764.87663786375 1978.54444160151 764.87663786375 1981.74444160151 C 764.87663786375 1984.94444160151 762.27663786375 1987.64444160151 758.97663786375 1987.64444160151 Z M 777.87663786375 1987.64444160151 C 774.57663786375 1987.64444160151 771.97663786375 1984.94444160151 771.97663786375 1981.74444160151 C 771.97663786375 1978.54444160151 774.67663786375 1975.84444160151 777.87663786375 1975.84444160151 C 781.17663786375 1975.84444160151 783.77663786375 1978.54444160151 783.77663786375 1981.74444160151 C 783.77663786375 1984.94444160151 781.17663786375 1987.64444160151 777.87663786375 1987.64444160151 Z M 796.77663786375 1987.64444160151 C 793.47663786375 1987.64444160151 790.87663786375 1984.94444160151 790.87663786375 1981.74444160151 C 790.87663786375 1978.54444160151 793.57663786375 1975.84444160151 796.77663786375 1975.84444160151 C 800.07663786375 1975.84444160151 802.67663786375 1978.54444160151 802.67663786375 1981.74444160151 C 802.67663786375 1984.94444160151 800.07663786375 1987.64444160151 796.77663786375 1987.64444160151 Z M 815.37663786375 1959.14444160151 L 453.37663786375 1959.14444160151 L 453.37663786375 1755.94444160151 L 815.37663786375 1755.94444160151 L 815.37663786375 1959.14444160151 Z"/><path fill="#ffffff" transform="matrix(0.257718070090513 0 0 0.257718070090513 38.079063004356684 9.100052591323475)" d="M 631.77663786375 1931.74444160151 C 627.67663786375 1931.74444160151 624.07663786375 1929.24444160151 622.57663786375 1925.54444160151 L 451.57663786375 1925.54444160151 L 451.57663786375 1918.04444160151 L 622.57663786375 1918.04444160151 C 624.07663786375 1914.34444160151 627.67663786375 1911.84444160151 631.77663786375 1911.84444160151 C 637.27663786375 1911.84444160151 641.67663786375 1916.34444160151 641.67663786375 1921.74444160151 C 641.67663786375 1927.34444160151 637.27663786375 1931.74444160151 631.77663786375 1931.74444160151 Z M 631.77663786375 1918.44444160151 C 629.87663786375 1918.44444160151 628.37663786375 1919.94444160151 628.37663786375 1921.84444160151 C 628.37663786375 1923.74444160151 629.87663786375 1925.24444160151 631.77663786375 1925.24444160151 C 633.67663786375 1925.24444160151 635.17663786375 1923.74444160151 635.17663786375 1921.84444160151 C 635.17663786375 1919.94444160151 633.67663786375 1918.44444160151 631.77663786375 1918.44444160151 Z"/><path fill="#ffffff" transform="matrix(0.257718070090513 0 0 0.257718070090513 38.079063004356684 9.100052591323475)" d="M 610.77663786375 1868.44444160151 C 606.67663786375 1868.44444160151 603.07663786375 1865.94444160151 601.57663786375 1862.24444160151 L 451.57663786375 1862.24444160151 L 451.57663786375 1854.74444160151 L 566.97663786375 1854.74444160151 L 566.97663786375 1833.64444160151 L 664.97663786375 1833.64444160151 C 666.47663786375 1829.94444160151 670.07663786375 1827.44444160151 674.17663786375 1827.44444160151 C 679.67663786375 1827.44444160151 684.07663786375 1831.94444160151 684.07663786375 1837.34444160151 C 684.07663786375 1842.74444160151 679.57663786375 1847.24444160151 674.17663786375 1847.24444160151 C 670.07663786375 1847.24444160151 666.47663786375 1844.74444160151 664.97663786375 1841.04444160151 L 574.37663786375 1841.04444160151 L 574.37663786375 1854.64444160151 L 601.57663786375 1854.64444160151 C 603.07663786375 1850.94444160151 606.67663786375 1848.44444160151 610.77663786375 1848.44444160151 C 616.27663786375 1848.44444160151 620.67663786375 1852.94444160151 620.67663786375 1858.34444160151 C 620.67663786375 1863.74444160151 616.27663786375 1868.44444160151 610.77663786375 1868.44444160151 Z M 610.77663786375 1855.14444160151 C 608.87663786375 1855.14444160151 607.37663786375 1856.64444160151 607.37663786375 1858.54444160151 C 607.37663786375 1860.44444160151 608.87663786375 1861.94444160151 610.77663786375 1861.94444160151 C 612.67663786375 1861.94444160151 614.17663786375 1860.44444160151 614.17663786375 1858.54444160151 C 614.17663786375 1856.64444160151 612.67663786375 1855.14444160151 610.77663786375 1855.14444160151 Z M 674.17663786375 1834.04444160151 C 672.27663786375 1834.04444160151 670.77663786375 1835.54444160151 670.77663786375 1837.44444160151 C 670.77663786375 1839.34444160151 672.27663786375 1840.84444160151 674.17663786375 1840.84444160151 C 676.07663786375 1840.84444160151 677.57663786375 1839.34444160151 677.57663786375 1837.44444160151 C 677.67663786375 1835.54444160151 676.07663786375 1834.04444160151 674.17663786375 1834.04444160151 Z"/><path fill="#ffffff" transform="matrix(0.257718070090513 0 0 0.257718070090513 38.079063004356684 9.100052591323475)" d="M 451.57663786375 1841.14444160151 L 451.57663786375 1833.64444160151 L 541.17663786375 1833.64444160151 L 541.17663786375 1812.54444160151 L 601.37663786375 1812.54444160151 C 602.87663786375 1808.84444160151 606.47663786375 1806.34444160151 610.57663786375 1806.34444160151 C 616.07663786375 1806.34444160151 620.47663786375 1810.84444160151 620.47663786375 1816.24444160151 C 620.47663786375 1821.64444160151 615.97663786375 1826.14444160151 610.57663786375 1826.14444160151 C 606.47663786375 1826.14444160151 602.87663786375 1823.64444160151 601.37663786375 1819.94444160151 L 548.57663786375 1819.94444160151 L 548.57663786375 1841.04444160151 L 451.57663786375 1841.04444160151 Z M 610.67663786375 1812.94444160151 C 608.77663786375 1812.94444160151 607.27663786375 1814.44444160151 607.27663786375 1816.34444160151 C 607.27663786375 1818.24444160151 608.77663786375 1819.74444160151 610.67663786375 1819.74444160151 C 612.57663786375 1819.74444160151 614.07663786375 1818.24444160151 614.07663786375 1816.34444160151 C 614.07663786375 1814.44444160151 612.57663786375 1812.94444160151 610.67663786375 1812.94444160151 Z"/><path fill="#ffffff" transform="matrix(0.257718070090513 0 0 0.257718070090513 38.079063004356684 9.100052591323475)" d="M 589.77663786375 1910.64444160151 C 585.77663786375 1910.64444160151 582.07663786375 1908.14444160151 580.57663786375 1904.44444160151 L 533.87663786375 1904.44444160151 L 533.87663786375 1883.34444160151 L 451.57663786375 1883.34444160151 L 451.57663786375 1875.84444160151 L 541.27663786375 1875.84444160151 L 541.27663786375 1896.94444160151 L 580.57663786375 1896.94444160151 C 582.07663786375 1893.24444160151 585.67663786375 1890.74444160151 589.77663786375 1890.74444160151 C 595.27663786375 1890.74444160151 599.67663786375 1895.24444160151 599.67663786375 1900.64444160151 C 599.67663786375 1906.24444160151 595.17663786375 1910.64444160151 589.77663786375 1910.64444160151 Z M 589.77663786375 1897.34444160151 C 587.87663786375 1897.34444160151 586.37663786375 1898.84444160151 586.37663786375 1900.74444160151 C 586.37663786375 1902.64444160151 587.87663786375 1904.14444160151 589.77663786375 1904.14444160151 C 591.67663786375 1904.14444160151 593.17663786375 1902.64444160151 593.17663786375 1900.74444160151 C 593.17663786375 1898.84444160151 591.57663786375 1897.34444160151 589.77663786375 1897.34444160151 Z"/><path fill="#ffffff" transform="matrix(0.257718070090513 0 0 0.257718070090513 38.079063004356684 9.100052591323475)" d="M 451.57663786375 1820.04444160151 L 451.57663786375 1812.54444160151 L 517.37663786375 1812.54444160151 L 517.37663786375 1791.44444160151 L 643.87663786375 1791.44444160151 C 645.37663786375 1787.74444160151 648.97663786375 1785.24444160151 653.07663786375 1785.24444160151 C 658.57663786375 1785.24444160151 662.97663786375 1789.74444160151 662.97663786375 1795.14444160151 C 662.97663786375 1800.64444160151 658.47663786375 1805.04444160151 653.07663786375 1805.04444160151 C 648.97663786375 1805.04444160151 645.37663786375 1802.54444160151 643.87663786375 1798.84444160151 L 524.87663786375 1798.84444160151 L 524.87663786375 1819.94444160151 L 451.57663786375 1819.94444160151 Z M 653.07663786375 1791.84444160151 C 651.17663786375 1791.84444160151 649.67663786375 1793.34444160151 649.67663786375 1795.24444160151 C 649.67663786375 1797.14444160151 651.17663786375 1798.64444160151 653.07663786375 1798.64444160151 C 654.97663786375 1798.64444160151 656.47663786375 1797.14444160151 656.47663786375 1795.24444160151 C 656.47663786375 1793.34444160151 654.87663786375 1791.84444160151 653.07663786375 1791.84444160151 Z"/><path id="text" fill="#ffffff" transform="matrix(0.516435494367805 0 0 0.516435494367805 167.84086162877318 11.883734460246696)" d="M 237.71151993722 910.00780410376 C 242.08651993722 910.25780410376 245.68026993722 911.92967910376 248.49276993722 915.02342910376 C 251.30526993722 918.11717910376 253.33651993722 921.63280410376 254.58651993722 925.57030410376 C 255.83651993722 929.50780410376 256.46151993722 933.53905410376 256.46151993722 937.66405410376 C 256.46151993722 941.78905410376 255.85214493722 945.82030410376 254.63339493722 949.75780410376 C 253.41464493722 953.69530410376 251.38339493722 957.21092910376 248.53964493722 960.30467910376 C 245.69589493722 963.39842910376 242.08651993722 965.07030410376 237.71151993722 965.32030410376 L 203.21151993722 965.32030410376 C 201.52401993722 965.25780410376 200.10214493722 964.64842910376 198.94589493722 963.49217910376 C 197.78964493722 962.33592910376 197.18026993722 960.91405410376 197.11776993722 959.22655410376 L 197.11776993722 935.97655410376 C 197.18026993722 934.22655410376 197.83651993722 932.77342910376 199.08651993722 931.61717910376 C 200.33651993722 930.46092910376 201.83651993722 929.88280410376 203.58651993722 929.88280410376 C 205.27401993722 929.94530410376 206.71151993722 930.55467910376 207.89901993722 931.71092910376 C 209.08651993722 932.86717910376 209.71151993722 934.28905410376 209.77401993722 935.97655410376 L 209.77401993722 950.22655410376 C 209.77401993722 951.91405410376 210.64901993722 952.75780410376 212.39901993722 952.75780410376 L 234.52401993722 952.75780410376 C 236.89901993722 952.63280410376 238.86776993722 951.72655410376 240.43026993722 950.03905410376 C 241.99276993722 948.35155410376 243.13339493722 946.42967910376 243.85214493722 944.27342910376 C 244.57089493722 942.11717910376 244.93026993722 939.91405410376 244.93026993722 937.66405410376 C 244.93026993722 935.41405410376 244.57089493722 933.21092910376 243.85214493722 931.05467910376 C 243.13339493722 928.89842910376 241.99276993722 926.97655410376 240.43026993722 925.28905410376 C 238.86776993722 923.60155410376 236.89901993722 922.69530410376 234.52401993722 922.57030410376 L 203.21151993722 922.57030410376 C 199.46151993722 922.25780410376 197.43026993722 920.22655410376 197.11776993722 916.47655410376 C 197.11776993722 914.72655410376 197.69589493722 913.22655410376 198.85214493722 911.97655410376 C 200.00839493722 910.72655410376 201.46151993722 910.07030410376 203.21151993722 910.00780410376 L 237.71151993722 910.00780410376 Z M 319.08651993722 960.35155410376 L 319.08651993722 937.75780410376 C 319.08651993722 936.19530410376 318.27401993722 935.38280410376 316.64901993722 935.32030410376 L 283.83651993722 935.32030410376 C 282.64901993722 935.38280410376 281.61776993722 935.89842910376 280.74276993722 936.86717910376 C 279.86776993722 937.83592910376 279.22714493722 938.96092910376 278.82089493722 940.24217910376 C 278.41464493722 941.52342910376 278.21151993722 942.82030410376 278.21151993722 944.13280410376 C 278.21151993722 945.38280410376 278.41464493722 946.64842910376 278.82089493722 947.92967910376 C 279.22714493722 949.21092910376 279.86776993722 950.33592910376 280.74276993722 951.30467910376 C 281.61776993722 952.27342910376 282.64901993722 952.75780410376 283.83651993722 952.75780410376 L 307.83651993722 952.75780410376 C 309.58651993722 952.75780410376 311.07089493722 953.36717910376 312.28964493722 954.58592910376 C 313.50839493722 955.80467910376 314.11776993722 957.28905410376 314.11776993722 959.03905410376 C 314.11776993722 960.78905410376 313.49276993722 962.25780410376 312.24276993722 963.44530410376 C 311.05526993722 964.69530410376 309.58651993722 965.32030410376 307.83651993722 965.32030410376 L 284.21151993722 965.32030410376 C 279.83651993722 965.25780410376 276.22714493722 964.02342910376 273.38339493722 961.61717910376 C 270.53964493722 959.21092910376 268.50839493722 956.49217910376 267.28964493722 953.46092910376 C 266.07089493722 950.42967910376 265.46151993722 947.28905410376 265.46151993722 944.03905410376 C 265.46151993722 940.91405410376 266.08651993722 937.83592910376 267.33651993722 934.80467910376 C 268.58651993722 931.77342910376 270.61776993722 929.05467910376 273.43026993722 926.64842910376 C 276.24276993722 924.24217910376 280.39901993722 922.94530410376 285.89901993722 922.75780410376 L 325.27401993722 922.75780410376 C 327.02401993722 922.75780410376 328.52401993722 923.33592910376 329.77401993722 924.49217910376 C 331.02401993722 925.64842910376 331.68026993722 927.10155410376 331.74276993722 928.85155410376 L 331.74276993722 960.35155410376 C 331.74276993722 962.10155410376 331.10214493722 963.55467910376 329.82089493722 964.71092910376 C 328.53964493722 965.86717910376 327.02401993722 966.44530410376 325.27401993722 966.44530410376 C 321.52401993722 966.13280410376 319.46151993722 964.10155410376 319.08651993722 960.35155410376 Z M 364.18026993722 908.50780410376 C 365.93026993722 908.50780410376 367.43026993722 909.08592910376 368.68026993722 910.24217910376 C 369.93026993722 911.39842910376 370.58651993722 912.85155410376 370.64901993722 914.60155410376 L 370.64901993722 922.75780410376 L 402.52401993722 922.75780410376 C 404.27401993722 922.75780410376 405.77401993722 923.35155410376 407.02401993722 924.53905410376 C 408.21151993722 925.78905410376 408.80526993722 927.28905410376 408.80526993722 929.03905410376 C 408.80526993722 930.78905410376 408.19589493722 932.27342910376 406.97714493722 933.49217910376 C 405.75839493722 934.71092910376 404.27401993722 935.32030410376 402.52401993722 935.32030410376 L 370.64901993722 935.32030410376 L 370.64901993722 937.19530410376 C 370.58651993722 939.75780410376 370.75839493722 942.11717910376 371.16464493722 944.27342910376 C 371.57089493722 946.42967910376 372.55526993722 948.35155410376 374.11776993722 950.03905410376 C 375.68026993722 951.72655410376 377.64901993722 952.63280410376 380.02401993722 952.75780410376 L 402.89901993722 952.75780410376 C 404.64901993722 952.82030410376 406.10214493722 953.47655410376 407.25839493722 954.72655410376 C 408.41464493722 955.97655410376 408.99276993722 957.47655410376 408.99276993722 959.22655410376 C 408.93026993722 960.91405410376 408.32089493722 962.33592910376 407.16464493722 963.49217910376 C 406.00839493722 964.64842910376 404.58651993722 965.25780410376 402.89901993722 965.32030410376 L 376.83651993722 965.32030410376 C 372.46151993722 965.07030410376 368.85214493722 963.58592910376 366.00839493722 960.86717910376 C 363.16464493722 958.14842910376 361.11776993722 954.82030410376 359.86776993722 950.88280410376 C 358.68026993722 946.94530410376 358.05526993722 942.75780410376 357.99276993722 938.32030410376 L 357.99276993722 935.32030410376 L 347.21151993722 935.32030410376 C 345.46151993722 935.32030410376 343.99276993722 934.69530410376 342.80526993722 933.44530410376 C 341.55526993722 932.25780410376 340.93026993722 930.78905410376 340.93026993722 929.03905410376 C 340.93026993722 927.28905410376 341.53964493722 925.80467910376 342.75839493722 924.58592910376 C 343.97714493722 923.36717910376 345.46151993722 922.75780410376 347.21151993722 922.75780410376 L 357.99276993722 922.75780410376 L 357.99276993722 914.60155410376 C 358.05526993722 912.91405410376 358.68026993722 911.49217910376 359.86776993722 910.33592910376 C 361.05526993722 909.17967910376 362.49276993722 908.57030410376 364.18026993722 908.50780410376 Z M 470.39901993722 960.35155410376 L 470.39901993722 937.75780410376 C 470.39901993722 936.19530410376 469.58651993722 935.38280410376 467.96151993722 935.32030410376 L 435.14901993722 935.32030410376 C 433.96151993722 935.38280410376 432.93026993722 935.89842910376 432.05526993722 936.86717910376 C 431.18026993722 937.83592910376 430.53964493722 938.96092910376 430.13339493722 940.24217910376 C 429.72714493722 941.52342910376 429.52401993722 942.82030410376 429.52401993722 944.13280410376 C 429.52401993722 945.38280410376 429.72714493722 946.64842910376 430.13339493722 947.92967910376 C 430.53964493722 949.21092910376 431.18026993722 950.33592910376 432.05526993722 951.30467910376 C 432.93026993722 952.27342910376 433.96151993722 952.75780410376 435.14901993722 952.75780410376 L 459.14901993722 952.75780410376 C 460.89901993722 952.75780410376 462.38339493722 953.36717910376 463.60214493722 954.58592910376 C 464.82089493722 955.80467910376 465.43026993722 957.28905410376 465.43026993722 959.03905410376 C 465.43026993722 960.78905410376 464.80526993722 962.25780410376 463.55526993722 963.44530410376 C 462.36776993722 964.69530410376 460.89901993722 965.32030410376 459.14901993722 965.32030410376 L 435.52401993722 965.32030410376 C 431.14901993722 965.25780410376 427.53964493722 964.02342910376 424.69589493722 961.61717910376 C 421.85214493722 959.21092910376 419.82089493722 956.49217910376 418.60214493722 953.46092910376 C 417.38339493722 950.42967910376 416.77401993722 947.28905410376 416.77401993722 944.03905410376 C 416.77401993722 940.91405410376 417.39901993722 937.83592910376 418.64901993722 934.80467910376 C 419.89901993722 931.77342910376 421.93026993722 929.05467910376 424.74276993722 926.64842910376 C 427.55526993722 924.24217910376 431.71151993722 922.94530410376 437.21151993722 922.75780410376 L 476.58651993722 922.75780410376 C 478.33651993722 922.75780410376 479.83651993722 923.33592910376 481.08651993722 924.49217910376 C 482.33651993722 925.64842910376 482.99276993722 927.10155410376 483.05526993722 928.85155410376 L 483.05526993722 960.35155410376 C 483.05526993722 962.10155410376 482.41464493722 963.55467910376 481.13339493722 964.71092910376 C 479.85214493722 965.86717910376 478.33651993722 966.44530410376 476.58651993722 966.44530410376 C 472.83651993722 966.13280410376 470.77401993722 964.10155410376 470.39901993722 960.35155410376 Z M 555.80526993722 916.28905410376 C 555.80526993722 918.03905410376 555.18026993722 919.50780410376 553.93026993722 920.69530410376 C 552.74276993722 921.94530410376 551.27401993722 922.57030410376 549.52401993722 922.57030410376 L 512.02401993722 922.57030410376 C 510.83651993722 922.63280410376 509.85214493722 922.89842910376 509.07089493722 923.36717910376 C 508.28964493722 923.83592910376 507.71151993722 924.36717910376 507.33651993722 924.96092910376 C 506.96151993722 925.55467910376 506.77401993722 926.16405410376 506.77401993722 926.78905410376 C 506.77401993722 927.41405410376 506.96151993722 928.02342910376 507.33651993722 928.61717910376 C 507.71151993722 929.21092910376 508.28964493722 929.74217910376 509.07089493722 930.21092910376 C 509.85214493722 930.67967910376 510.83651993722 930.94530410376 512.02401993722 931.00780410376 L 538.64901993722 931.00780410376 C 543.02401993722 931.13280410376 546.63339493722 932.14842910376 549.47714493722 934.05467910376 C 552.32089493722 935.96092910376 554.35214493722 938.14842910376 555.57089493722 940.61717910376 C 556.78964493722 943.08592910376 557.39901993722 945.60155410376 557.39901993722 948.16405410376 C 557.39901993722 950.66405410376 556.77401993722 953.14842910376 555.52401993722 955.61717910376 C 554.27401993722 958.08592910376 552.24276993722 960.27342910376 549.43026993722 962.17967910376 C 546.61776993722 964.08592910376 543.02401993722 965.03905410376 538.64901993722 965.03905410376 L 538.08651993722 965.03905410376 C 537.71151993722 965.10155410376 537.33651993722 965.13280410376 536.96151993722 965.13280410376 L 501.52401993722 965.13280410376 C 499.77401993722 965.13280410376 498.28964493722 964.52342910376 497.07089493722 963.30467910376 C 495.85214493722 962.08592910376 495.24276993722 960.60155410376 495.24276993722 958.85155410376 C 495.24276993722 957.10155410376 495.86776993722 955.63280410376 497.11776993722 954.44530410376 C 498.30526993722 953.19530410376 499.77401993722 952.57030410376 501.52401993722 952.57030410376 L 539.21151993722 952.57030410376 C 540.39901993722 952.63280410376 541.38339493722 952.41405410376 542.16464493722 951.91405410376 C 542.94589493722 951.41405410376 543.52401993722 950.83592910376 543.89901993722 950.17967910376 C 544.27401993722 949.52342910376 544.46151993722 948.85155410376 544.46151993722 948.16405410376 C 544.46151993722 947.72655410376 544.27401993722 947.11717910376 543.89901993722 946.33592910376 C 543.52401993722 945.55467910376 542.94589493722 944.91405410376 542.16464493722 944.41405410376 C 541.38339493722 943.91405410376 540.39901993722 943.63280410376 539.21151993722 943.57030410376 L 512.58651993722 943.57030410376 C 508.21151993722 943.44530410376 504.60214493722 942.44530410376 501.75839493722 940.57030410376 C 498.91464493722 938.69530410376 496.88339493722 936.55467910376 495.66464493722 934.14842910376 C 494.44589493722 931.74217910376 493.83651993722 929.28905410376 493.83651993722 926.78905410376 C 493.83651993722 924.35155410376 494.46151993722 921.92967910376 495.71151993722 919.52342910376 C 496.96151993722 917.11717910376 498.99276993722 914.97655410376 501.80526993722 913.10155410376 C 504.61776993722 911.22655410376 508.21151993722 910.22655410376 512.58651993722 910.10155410376 L 513.14901993722 910.10155410376 C 513.52401993722 910.03905410376 513.89901993722 910.00780410376 514.27401993722 910.00780410376 L 549.52401993722 910.00780410376 C 551.27401993722 910.00780410376 552.75839493722 910.61717910376 553.97714493722 911.83592910376 C 555.19589493722 913.05467910376 555.80526993722 914.53905410376 555.80526993722 916.28905410376 Z M 586.93026993722 965.32030410376 C 581.43026993722 965.13280410376 577.27401993722 963.83592910376 574.46151993722 961.42967910376 C 571.64901993722 959.02342910376 569.61776993722 956.30467910376 568.36776993722 953.27342910376 C 567.11776993722 950.24217910376 566.49276993722 947.16405410376 566.49276993722 944.03905410376 C 566.49276993722 940.78905410376 567.10214493722 937.64842910376 568.32089493722 934.61717910376 C 569.53964493722 931.58592910376 571.57089493722 928.86717910376 574.41464493722 926.46092910376 C 577.25839493722 924.05467910376 580.86776993722 922.82030410376 585.24276993722 922.75780410376 L 620.86776993722 922.75780410376 C 622.61776993722 922.75780410376 624.08651993722 923.38280410376 625.27401993722 924.63280410376 C 626.52401993722 925.82030410376 627.14901993722 927.28905410376 627.14901993722 929.03905410376 C 627.14901993722 930.78905410376 626.53964493722 932.27342910376 625.32089493722 933.49217910376 C 624.10214493722 934.71092910376 622.61776993722 935.32030410376 620.86776993722 935.32030410376 L 584.86776993722 935.32030410376 C 583.68026993722 935.32030410376 582.64901993722 935.80467910376 581.77401993722 936.77342910376 C 580.89901993722 937.74217910376 580.25839493722 938.86717910376 579.85214493722 940.14842910376 C 579.44589493722 941.42967910376 579.24276993722 942.69530410376 579.24276993722 943.94530410376 C 579.24276993722 945.25780410376 579.44589493722 946.55467910376 579.85214493722 947.83592910376 C 580.25839493722 949.11717910376 580.89901993722 950.24217910376 581.77401993722 951.21092910376 C 582.64901993722 952.17967910376 583.68026993722 952.69530410376 584.86776993722 952.75780410376 L 620.86776993722 952.75780410376 C 622.61776993722 952.75780410376 624.10214493722 953.36717910376 625.32089493722 954.58592910376 C 626.53964493722 955.80467910376 627.14901993722 957.28905410376 627.14901993722 959.03905410376 C 627.14901993722 960.78905410376 626.52401993722 962.25780410376 625.27401993722 963.44530410376 C 624.08651993722 964.69530410376 622.61776993722 965.32030410376 620.86776993722 965.32030410376 L 586.93026993722 965.32030410376 Z M 643.46151993722 921.82030410376 C 645.14901993722 921.88280410376 646.58651993722 922.49217910376 647.77401993722 923.64842910376 C 648.96151993722 924.80467910376 649.58651993722 926.22655410376 649.64901993722 927.91405410376 L 649.64901993722 960.35155410376 C 649.27401993722 964.10155410376 647.21151993722 966.13280410376 643.46151993722 966.44530410376 C 641.71151993722 966.44530410376 640.19589493722 965.86717910376 638.91464493722 964.71092910376 C 637.63339493722 963.55467910376 636.99276993722 962.10155410376 636.99276993722 960.35155410376 L 636.99276993722 927.91405410376 C 637.05526993722 926.16405410376 637.71151993722 924.71092910376 638.96151993722 923.55467910376 C 640.21151993722 922.39842910376 641.71151993722 921.82030410376 643.46151993722 921.82030410376 Z M 635.58651993722 909.63280410376 C 635.58651993722 907.88280410376 636.33651993722 906.38280410376 637.83651993722 905.13280410376 C 639.33651993722 903.88280410376 641.14901993722 903.25780410376 643.27401993722 903.25780410376 C 645.39901993722 903.25780410376 647.21151993722 903.88280410376 648.71151993722 905.13280410376 C 650.21151993722 906.38280410376 650.96151993722 907.88280410376 650.96151993722 909.63280410376 C 650.96151993722 911.44530410376 650.21151993722 912.97655410376 648.71151993722 914.22655410376 C 647.21151993722 915.47655410376 645.39901993722 916.10155410376 643.27401993722 916.10155410376 C 641.14901993722 916.10155410376 639.33651993722 915.47655410376 637.83651993722 914.22655410376 C 636.33651993722 912.97655410376 635.58651993722 911.44530410376 635.58651993722 909.63280410376 Z M 680.30526993722 965.32030410376 C 674.80526993722 965.13280410376 670.64901993722 963.83592910376 667.83651993722 961.42967910376 C 665.02401993722 959.02342910376 662.99276993722 956.30467910376 661.74276993722 953.27342910376 C 660.49276993722 950.24217910376 659.86776993722 947.16405410376 659.86776993722 944.03905410376 C 659.86776993722 940.78905410376 660.47714493722 937.64842910376 661.69589493722 934.61717910376 C 662.91464493722 931.58592910376 664.94589493722 928.86717910376 667.78964493722 926.46092910376 C 670.63339493722 924.05467910376 674.24276993722 922.82030410376 678.61776993722 922.75780410376 L 714.24276993722 922.75780410376 C 715.99276993722 922.75780410376 717.46151993722 923.35155410376 718.64901993722 924.53905410376 C 719.89901993722 925.66405410376 720.52401993722 927.03905410376 720.52401993722 928.66405410376 C 720.52401993722 930.35155410376 719.91464493722 931.77342910376 718.69589493722 932.92967910376 C 717.47714493722 934.08592910376 715.99276993722 934.66405410376 714.24276993722 934.66405410376 L 679.18026993722 934.66405410376 C 677.80526993722 934.66405410376 676.60214493722 935.13280410376 675.57089493722 936.07030410376 C 674.53964493722 937.00780410376 673.78964493722 938.22655410376 673.32089493722 939.72655410376 C 672.85214493722 941.22655410376 672.61776993722 942.69530410376 672.61776993722 944.13280410376 C 672.61776993722 945.69530410376 672.85214493722 947.22655410376 673.32089493722 948.72655410376 C 673.78964493722 950.22655410376 674.53964493722 951.42967910376 675.57089493722 952.33592910376 C 676.60214493722 953.24217910376 677.80526993722 953.72655410376 679.18026993722 953.78905410376 L 714.24276993722 953.78905410376 C 715.99276993722 953.78905410376 717.47714493722 954.35155410376 718.69589493722 955.47655410376 C 719.91464493722 956.60155410376 720.52401993722 957.94530410376 720.52401993722 959.50780410376 C 720.52401993722 961.13280410376 719.89901993722 962.50780410376 718.64901993722 963.63280410376 C 717.46151993722 964.75780410376 715.99276993722 965.32030410376 714.24276993722 965.32030410376 L 680.30526993722 965.32030410376 Z M 719.39901993722 943.85155410376 C 719.39901993722 945.03905410376 718.86776993722 946.07030410376 717.80526993722 946.94530410376 C 716.86776993722 947.75780410376 715.68026993722 948.16405410376 714.24276993722 948.16405410376 L 683.58651993722 948.16405410376 C 682.14901993722 948.16405410376 680.93026993722 947.74217910376 679.93026993722 946.89842910376 C 678.93026993722 946.05467910376 678.43026993722 945.03905410376 678.43026993722 943.85155410376 C 678.43026993722 942.72655410376 678.93026993722 941.72655410376 679.93026993722 940.85155410376 C 680.93026993722 940.03905410376 682.14901993722 939.63280410376 683.58651993722 939.63280410376 L 714.24276993722 939.63280410376 C 715.68026993722 939.63280410376 716.89901993722 940.05467910376 717.89901993722 940.89842910376 C 718.89901993722 941.74217910376 719.39901993722 942.72655410376 719.39901993722 943.85155410376 Z M 761.21151993722 921.35155410376 C 764.46151993722 921.35155410376 767.66464493722 921.72655410376 770.82089493722 922.47655410376 C 773.97714493722 923.22655410376 776.99276993722 924.33592910376 779.86776993722 925.80467910376 C 782.74276993722 927.27342910376 785.28964493722 929.22655410376 787.50839493722 931.66405410376 C 789.72714493722 934.10155410376 790.93026993722 937.00780410376 791.11776993722 940.38280410376 L 791.11776993722 944.32030410376 L 791.11776993722 960.35155410376 C 790.74276993722 964.10155410376 788.68026993722 966.13280410376 784.93026993722 966.44530410376 C 783.18026993722 966.44530410376 781.66464493722 965.86717910376 780.38339493722 964.71092910376 C 779.10214493722 963.55467910376 778.46151993722 962.10155410376 778.46151993722 960.35155410376 L 778.46151993722 956.22655410376 L 778.46151993722 943.28905410376 C 778.33651993722 941.35155410376 777.60214493722 939.74217910376 776.25839493722 938.46092910376 C 774.91464493722 937.17967910376 773.41464493722 936.16405410376 771.75839493722 935.41405410376 C 770.10214493722 934.66405410376 768.38339493722 934.10155410376 766.60214493722 933.72655410376 C 764.82089493722 933.35155410376 763.02401993722 933.16405410376 761.21151993722 933.16405410376 C 759.39901993722 933.16405410376 757.60214493722 933.35155410376 755.82089493722 933.72655410376 C 754.03964493722 934.10155410376 752.32089493722 934.66405410376 750.66464493722 935.41405410376 C 749.00839493722 936.16405410376 747.50839493722 937.17967910376 746.16464493722 938.46092910376 C 744.82089493722 939.74217910376 744.08651993722 941.35155410376 743.96151993722 943.28905410376 L 743.96151993722 956.22655410376 L 743.96151993722 960.35155410376 C 743.64901993722 964.10155410376 741.61776993722 966.13280410376 737.86776993722 966.44530410376 C 736.11776993722 966.44530410376 734.60214493722 965.86717910376 733.32089493722 964.71092910376 C 732.03964493722 963.55467910376 731.39901993722 962.10155410376 731.39901993722 960.35155410376 L 731.39901993722 944.32030410376 L 731.39901993722 940.38280410376 C 731.58651993722 937.00780410376 732.77401993722 934.10155410376 734.96151993722 931.66405410376 C 737.14901993722 929.22655410376 739.68026993722 927.27342910376 742.55526993722 925.80467910376 C 745.43026993722 924.33592910376 748.44589493722 923.22655410376 751.60214493722 922.47655410376 C 754.75839493722 921.72655410376 757.96151993722 921.35155410376 761.21151993722 921.35155410376 Z M 822.05526993722 965.32030410376 C 816.55526993722 965.13280410376 812.39901993722 963.83592910376 809.58651993722 961.42967910376 C 806.77401993722 959.02342910376 804.74276993722 956.30467910376 803.49276993722 953.27342910376 C 802.24276993722 950.24217910376 801.61776993722 947.16405410376 801.61776993722 944.03905410376 C 801.61776993722 940.78905410376 802.22714493722 937.64842910376 803.44589493722 934.61717910376 C 804.66464493722 931.58592910376 806.69589493722 928.86717910376 809.53964493722 926.46092910376 C 812.38339493722 924.05467910376 815.99276993722 922.82030410376 820.36776993722 922.75780410376 L 855.99276993722 922.75780410376 C 857.74276993722 922.75780410376 859.21151993722 923.38280410376 860.39901993722 924.63280410376 C 861.64901993722 925.82030410376 862.27401993722 927.28905410376 862.27401993722 929.03905410376 C 862.27401993722 930.78905410376 861.66464493722 932.27342910376 860.44589493722 933.49217910376 C 859.22714493722 934.71092910376 857.74276993722 935.32030410376 855.99276993722 935.32030410376 L 819.99276993722 935.32030410376 C 818.80526993722 935.32030410376 817.77401993722 935.80467910376 816.89901993722 936.77342910376 C 816.02401993722 937.74217910376 815.38339493722 938.86717910376 814.97714493722 940.14842910376 C 814.57089493722 941.42967910376 814.36776993722 942.69530410376 814.36776993722 943.94530410376 C 814.36776993722 945.25780410376 814.57089493722 946.55467910376 814.97714493722 947.83592910376 C 815.38339493722 949.11717910376 816.02401993722 950.24217910376 816.89901993722 951.21092910376 C 817.77401993722 952.17967910376 818.80526993722 952.69530410376 819.99276993722 952.75780410376 L 855.99276993722 952.75780410376 C 857.74276993722 952.75780410376 859.22714493722 953.36717910376 860.44589493722 954.58592910376 C 861.66464493722 955.80467910376 862.27401993722 957.28905410376 862.27401993722 959.03905410376 C 862.27401993722 960.78905410376 861.64901993722 962.25780410376 860.39901993722 963.44530410376 C 859.21151993722 964.69530410376 857.74276993722 965.32030410376 855.99276993722 965.32030410376 L 822.05526993722 965.32030410376 Z M 891.33651993722 965.32030410376 C 885.83651993722 965.13280410376 881.68026993722 963.83592910376 878.86776993722 961.42967910376 C 876.05526993722 959.02342910376 874.02401993722 956.30467910376 872.77401993722 953.27342910376 C 871.52401993722 950.24217910376 870.89901993722 947.16405410376 870.89901993722 944.03905410376 C 870.89901993722 940.78905410376 871.50839493722 937.64842910376 872.72714493722 934.61717910376 C 873.94589493722 931.58592910376 875.97714493722 928.86717910376 878.82089493722 926.46092910376 C 881.66464493722 924.05467910376 885.27401993722 922.82030410376 889.64901993722 922.75780410376 L 925.27401993722 922.75780410376 C 927.02401993722 922.75780410376 928.49276993722 923.35155410376 929.68026993722 924.53905410376 C 930.93026993722 925.66405410376 931.55526993722 927.03905410376 931.55526993722 928.66405410376 C 931.55526993722 930.35155410376 930.94589493722 931.77342910376 929.72714493722 932.92967910376 C 928.50839493722 934.08592910376 927.02401993722 934.66405410376 925.27401993722 934.66405410376 L 890.21151993722 934.66405410376 C 888.83651993722 934.66405410376 887.63339493722 935.13280410376 886.60214493722 936.07030410376 C 885.57089493722 937.00780410376 884.82089493722 938.22655410376 884.35214493722 939.72655410376 C 883.88339493722 941.22655410376 883.64901993722 942.69530410376 883.64901993722 944.13280410376 C 883.64901993722 945.69530410376 883.88339493722 947.22655410376 884.35214493722 948.72655410376 C 884.82089493722 950.22655410376 885.57089493722 951.42967910376 886.60214493722 952.33592910376 C 887.63339493722 953.24217910376 888.83651993722 953.72655410376 890.21151993722 953.78905410376 L 925.27401993722 953.78905410376 C 927.02401993722 953.78905410376 928.50839493722 954.35155410376 929.72714493722 955.47655410376 C 930.94589493722 956.60155410376 931.55526993722 957.94530410376 931.55526993722 959.50780410376 C 931.55526993722 961.13280410376 930.93026993722 962.50780410376 929.68026993722 963.63280410376 C 928.49276993722 964.75780410376 927.02401993722 965.32030410376 925.27401993722 965.32030410376 L 891.33651993722 965.32030410376 Z M 930.43026993722 943.85155410376 C 930.43026993722 945.03905410376 929.89901993722 946.07030410376 928.83651993722 946.94530410376 C 927.89901993722 947.75780410376 926.71151993722 948.16405410376 925.27401993722 948.16405410376 L 894.61776993722 948.16405410376 C 893.18026993722 948.16405410376 891.96151993722 947.74217910376 890.96151993722 946.89842910376 C 889.96151993722 946.05467910376 889.46151993722 945.03905410376 889.46151993722 943.85155410376 C 889.46151993722 942.72655410376 889.96151993722 941.72655410376 890.96151993722 940.85155410376 C 891.96151993722 940.03905410376 893.18026993722 939.63280410376 894.61776993722 939.63280410376 L 925.27401993722 939.63280410376 C 926.71151993722 939.63280410376 927.93026993722 940.05467910376 928.93026993722 940.89842910376 C 929.93026993722 941.74217910376 930.43026993722 942.72655410376 930.43026993722 943.85155410376 Z M 983.02401993722 910.00780410376 C 987.39901993722 910.25780410376 990.99276993722 911.92967910376 993.80526993722 915.02342910376 C 996.61776993722 918.11717910376 998.64901993722 921.63280410376 999.89901993722 925.57030410376 C 1001.14901993722 929.50780410376 1001.77401993722 933.53905410376 1001.77401993722 937.66405410376 C 1001.77401993722 941.78905410376 1001.16464493722 945.82030410376 999.94589493722 949.75780410376 C 998.72714493722 953.69530410376 996.69589493722 957.21092910376 993.85214493722 960.30467910376 C 991.00839493722 963.39842910376 987.39901993722 965.07030410376 983.02401993722 965.32030410376 L 948.52401993722 965.32030410376 C 946.83651993722 965.25780410376 945.41464493722 964.64842910376 944.25839493722 963.49217910376 C 943.10214493722 962.33592910376 942.49276993722 960.91405410376 942.43026993722 959.22655410376 L 942.43026993722 935.97655410376 C 942.49276993722 934.22655410376 943.14901993722 932.77342910376 944.39901993722 931.61717910376 C 945.64901993722 930.46092910376 947.14901993722 929.88280410376 948.89901993722 929.88280410376 C 950.58651993722 929.94530410376 952.02401993722 930.55467910376 953.21151993722 931.71092910376 C 954.39901993722 932.86717910376 955.02401993722 934.28905410376 955.08651993722 935.97655410376 L 955.08651993722 950.22655410376 C 955.08651993722 951.91405410376 955.96151993722 952.75780410376 957.71151993722 952.75780410376 L 979.83651993722 952.75780410376 C 982.21151993722 952.63280410376 984.18026993722 951.72655410376 985.74276993722 950.03905410376 C 987.30526993722 948.35155410376 988.44589493722 946.42967910376 989.16464493722 944.27342910376 C 989.88339493722 942.11717910376 990.24276993722 939.91405410376 990.24276993722 937.66405410376 C 990.24276993722 935.41405410376 989.88339493722 933.21092910376 989.16464493722 931.05467910376 C 988.44589493722 928.89842910376 987.30526993722 926.97655410376 985.74276993722 925.28905410376 C 984.18026993722 923.60155410376 982.21151993722 922.69530410376 979.83651993722 922.57030410376 L 948.52401993722 922.57030410376 C 944.77401993722 922.25780410376 942.74276993722 920.22655410376 942.43026993722 916.47655410376 C 942.43026993722 914.72655410376 943.00839493722 913.22655410376 944.16464493722 911.97655410376 C 945.32089493722 910.72655410376 946.77401993722 910.07030410376 948.52401993722 910.00780410376 L 983.02401993722 910.00780410376 Z M 1018.46151993722 921.82030410376 C 1020.14901993722 921.88280410376 1021.58651993722 922.49217910376 1022.77401993722 923.64842910376 C 1023.96151993722 924.80467910376 1024.58651993722 926.22655410376 1024.64901993722 927.91405410376 L 1024.64901993722 960.35155410376 C 1024.27401993722 964.10155410376 1022.21151993722 966.13280410376 1018.46151993722 966.44530410376 C 1016.71151993722 966.44530410376 1015.19589493722 965.86717910376 1013.91464493722 964.71092910376 C 1012.63339493722 963.55467910376 1011.99276993722 962.10155410376 1011.99276993722 960.35155410376 L 1011.99276993722 927.91405410376 C 1012.05526993722 926.16405410376 1012.71151993722 924.71092910376 1013.96151993722 923.55467910376 C 1015.21151993722 922.39842910376 1016.71151993722 921.82030410376 1018.46151993722 921.82030410376 Z M 1010.58651993722 909.63280410376 C 1010.58651993722 907.88280410376 1011.33651993722 906.38280410376 1012.83651993722 905.13280410376 C 1014.33651993722 903.88280410376 1016.14901993722 903.25780410376 1018.27401993722 903.25780410376 C 1020.39901993722 903.25780410376 1022.21151993722 903.88280410376 1023.71151993722 905.13280410376 C 1025.21151993722 906.38280410376 1025.96151993722 907.88280410376 1025.96151993722 909.63280410376 C 1025.96151993722 911.44530410376 1025.21151993722 912.97655410376 1023.71151993722 914.22655410376 C 1022.21151993722 915.47655410376 1020.39901993722 916.10155410376 1018.27401993722 916.10155410376 C 1016.14901993722 916.10155410376 1014.33651993722 915.47655410376 1012.83651993722 914.22655410376 C 1011.33651993722 912.97655410376 1010.58651993722 911.44530410376 1010.58651993722 909.63280410376 Z M 1088.68026993722 937.75780410376 C 1088.68026993722 936.19530410376 1087.86776993722 935.38280410376 1086.24276993722 935.32030410376 L 1053.43026993722 935.32030410376 C 1052.24276993722 935.38280410376 1051.21151993722 935.89842910376 1050.33651993722 936.86717910376 C 1049.46151993722 937.83592910376 1048.82089493722 938.96092910376 1048.41464493722 940.24217910376 C 1048.00839493722 941.52342910376 1047.80526993722 942.82030410376 1047.80526993722 944.13280410376 C 1047.80526993722 945.38280410376 1048.00839493722 946.64842910376 1048.41464493722 947.92967910376 C 1048.82089493722 949.21092910376 1049.46151993722 950.33592910376 1050.33651993722 951.30467910376 C 1051.21151993722 952.27342910376 1052.24276993722 952.75780410376 1053.43026993722 952.75780410376 L 1077.43026993722 952.75780410376 C 1079.18026993722 952.75780410376 1080.66464493722 953.36717910376 1081.88339493722 954.58592910376 C 1083.10214493722 955.80467910376 1083.71151993722 957.28905410376 1083.71151993722 959.03905410376 C 1083.71151993722 960.78905410376 1083.08651993722 962.25780410376 1081.83651993722 963.44530410376 C 1080.64901993722 964.69530410376 1079.18026993722 965.32030410376 1077.43026993722 965.32030410376 L 1053.80526993722 965.32030410376 C 1049.43026993722 965.25780410376 1045.82089493722 964.02342910376 1042.97714493722 961.61717910376 C 1040.13339493722 959.21092910376 1038.10214493722 956.49217910376 1036.88339493722 953.46092910376 C 1035.66464493722 950.42967910376 1035.05526993722 947.28905410376 1035.05526993722 944.03905410376 C 1035.05526993722 940.91405410376 1035.68026993722 937.83592910376 1036.93026993722 934.80467910376 C 1038.18026993722 931.77342910376 1040.21151993722 929.05467910376 1043.02401993722 926.64842910376 C 1045.83651993722 924.24217910376 1049.99276993722 922.94530410376 1055.49276993722 922.75780410376 L 1094.86776993722 922.75780410376 C 1096.61776993722 922.75780410376 1098.11776993722 923.33592910376 1099.36776993722 924.49217910376 C 1100.61776993722 925.64842910376 1101.27401993722 927.10155410376 1101.33651993722 928.85155410376 L 1101.33651993722 958.47655410376 C 1101.33651993722 963.47655410376 1100.64901993722 968.19530410376 1099.27401993722 972.63280410376 C 1098.02401993722 976.57030410376 1095.97714493722 979.89842910376 1093.13339493722 982.61717910376 C 1090.28964493722 985.33592910376 1086.68026993722 986.82030410376 1082.30526993722 987.07030410376 L 1049.86776993722 987.07030410376 C 1048.18026993722 987.00780410376 1046.75839493722 986.39842910376 1045.60214493722 985.24217910376 C 1044.44589493722 984.08592910376 1043.83651993722 982.66405410376 1043.77401993722 980.97655410376 C 1043.77401993722 979.22655410376 1044.35214493722 977.72655410376 1045.50839493722 976.47655410376 C 1046.66464493722 975.22655410376 1048.11776993722 974.57030410376 1049.86776993722 974.50780410376 L 1079.11776993722 974.50780410376 C 1081.49276993722 974.38280410376 1083.46151993722 973.47655410376 1085.02401993722 971.78905410376 C 1086.58651993722 970.10155410376 1087.58651993722 968.13280410376 1088.02401993722 965.88280410376 C 1088.46151993722 963.63280410376 1088.68026993722 960.72655410376 1088.68026993722 957.16405410376 L 1088.68026993722 937.75780410376 Z M 1133.21151993722 965.32030410376 C 1127.71151993722 965.13280410376 1123.55526993722 963.83592910376 1120.74276993722 961.42967910376 C 1117.93026993722 959.02342910376 1115.89901993722 956.30467910376 1114.64901993722 953.27342910376 C 1113.39901993722 950.24217910376 1112.77401993722 947.16405410376 1112.77401993722 944.03905410376 C 1112.77401993722 940.78905410376 1113.38339493722 937.64842910376 1114.60214493722 934.61717910376 C 1115.82089493722 931.58592910376 1117.85214493722 928.86717910376 1120.69589493722 926.46092910376 C 1123.53964493722 924.05467910376 1127.14901993722 922.82030410376 1131.52401993722 922.75780410376 L 1167.14901993722 922.75780410376 C 1168.89901993722 922.75780410376 1170.36776993722 923.35155410376 1171.55526993722 924.53905410376 C 1172.80526993722 925.66405410376 1173.43026993722 927.03905410376 1173.43026993722 928.66405410376 C 1173.43026993722 930.35155410376 1172.82089493722 931.77342910376 1171.60214493722 932.92967910376 C 1170.38339493722 934.08592910376 1168.89901993722 934.66405410376 1167.14901993722 934.66405410376 L 1132.08651993722 934.66405410376 C 1130.71151993722 934.66405410376 1129.50839493722 935.13280410376 1128.47714493722 936.07030410376 C 1127.44589493722 937.00780410376 1126.69589493722 938.22655410376 1126.22714493722 939.72655410376 C 1125.75839493722 941.22655410376 1125.52401993722 942.69530410376 1125.52401993722 944.13280410376 C 1125.52401993722 945.69530410376 1125.75839493722 947.22655410376 1126.22714493722 948.72655410376 C 1126.69589493722 950.22655410376 1127.44589493722 951.42967910376 1128.47714493722 952.33592910376 C 1129.50839493722 953.24217910376 1130.71151993722 953.72655410376 1132.08651993722 953.78905410376 L 1167.14901993722 953.78905410376 C 1168.89901993722 953.78905410376 1170.38339493722 954.35155410376 1171.60214493722 955.47655410376 C 1172.82089493722 956.60155410376 1173.43026993722 957.94530410376 1173.43026993722 959.50780410376 C 1173.43026993722 961.13280410376 1172.80526993722 962.50780410376 1171.55526993722 963.63280410376 C 1170.36776993722 964.75780410376 1168.89901993722 965.32030410376 1167.14901993722 965.32030410376 L 1133.21151993722 965.32030410376 Z M 1172.30526993722 943.85155410376 C 1172.30526993722 945.03905410376 1171.77401993722 946.07030410376 1170.71151993722 946.94530410376 C 1169.77401993722 947.75780410376 1168.58651993722 948.16405410376 1167.14901993722 948.16405410376 L 1136.49276993722 948.16405410376 C 1135.05526993722 948.16405410376 1133.83651993722 947.74217910376 1132.83651993722 946.89842910376 C 1131.83651993722 946.05467910376 1131.33651993722 945.03905410376 1131.33651993722 943.85155410376 C 1131.33651993722 942.72655410376 1131.83651993722 941.72655410376 1132.83651993722 940.85155410376 C 1133.83651993722 940.03905410376 1135.05526993722 939.63280410376 1136.49276993722 939.63280410376 L 1167.14901993722 939.63280410376 C 1168.58651993722 939.63280410376 1169.80526993722 940.05467910376 1170.80526993722 940.89842910376 C 1171.80526993722 941.74217910376 1172.30526993722 942.72655410376 1172.30526993722 943.85155410376 Z M 1243.74276993722 928.19530410376 C 1243.74276993722 929.75780410376 1243.11776993722 931.07030410376 1241.86776993722 932.13280410376 C 1240.68026993722 933.13280410376 1239.21151993722 933.63280410376 1237.46151993722 933.63280410376 L 1197.80526993722 933.63280410376 C 1196.99276993722 933.63280410376 1196.33651993722 933.78905410376 1195.83651993722 934.10155410376 C 1195.33651993722 934.41405410376 1194.96151993722 934.74217910376 1194.71151993722 935.08592910376 C 1194.46151993722 935.42967910376 1194.33651993722 935.72655410376 1194.33651993722 935.97655410376 C 1194.33651993722 936.28905410376 1194.46151993722 936.61717910376 1194.71151993722 936.96092910376 C 1194.96151993722 937.30467910376 1195.33651993722 937.61717910376 1195.83651993722 937.89842910376 C 1196.33651993722 938.17967910376 1196.99276993722 938.35155410376 1197.80526993722 938.41405410376 L 1228.46151993722 938.41405410376 C 1232.39901993722 938.47655410376 1235.64901993722 939.24217910376 1238.21151993722 940.71092910376 C 1240.77401993722 942.17967910376 1242.60214493722 943.89842910376 1243.69589493722 945.86717910376 C 1244.78964493722 947.83592910376 1245.33651993722 949.82030410376 1245.33651993722 951.82030410376 C 1245.33651993722 953.75780410376 1244.77401993722 955.71092910376 1243.64901993722 957.67967910376 C 1242.52401993722 959.64842910376 1240.69589493722 961.36717910376 1238.16464493722 962.83592910376 C 1235.63339493722 964.30467910376 1232.39901993722 965.03905410376 1228.46151993722 965.03905410376 C 1227.77401993722 965.10155410376 1227.27401993722 965.13280410376 1226.96151993722 965.13280410376 L 1190.58651993722 965.13280410376 C 1188.83651993722 965.13280410376 1187.35214493722 964.61717910376 1186.13339493722 963.58592910376 C 1184.91464493722 962.55467910376 1184.30526993722 961.28905410376 1184.30526993722 959.78905410376 C 1184.30526993722 958.22655410376 1184.93026993722 956.91405410376 1186.18026993722 955.85155410376 C 1187.36776993722 954.85155410376 1188.83651993722 954.35155410376 1190.58651993722 954.35155410376 L 1229.21151993722 954.35155410376 C 1230.14901993722 954.41405410376 1230.91464493722 954.28905410376 1231.50839493722 953.97655410376 C 1232.10214493722 953.66405410376 1232.55526993722 953.32030410376 1232.86776993722 952.94530410376 C 1233.18026993722 952.57030410376 1233.33651993722 952.19530410376 1233.33651993722 951.82030410376 C 1233.33651993722 951.63280410376 1233.18026993722 951.30467910376 1232.86776993722 950.83592910376 C 1232.55526993722 950.36717910376 1232.10214493722 949.99217910376 1231.50839493722 949.71092910376 C 1230.91464493722 949.42967910376 1230.14901993722 949.25780410376 1229.21151993722 949.19530410376 L 1198.46151993722 949.19530410376 C 1194.83651993722 949.13280410376 1191.83651993722 948.36717910376 1189.46151993722 946.89842910376 C 1187.08651993722 945.42967910376 1185.39901993722 943.72655410376 1184.39901993722 941.78905410376 C 1183.39901993722 939.85155410376 1182.89901993722 937.91405410376 1182.89901993722 935.97655410376 C 1182.89901993722 934.03905410376 1183.41464493722 932.11717910376 1184.44589493722 930.21092910376 C 1185.47714493722 928.30467910376 1187.16464493722 926.64842910376 1189.50839493722 925.24217910376 C 1191.85214493722 923.83592910376 1194.83651993722 923.07030410376 1198.46151993722 922.94530410376 C 1199.08651993722 922.88280410376 1199.55526993722 922.85155410376 1199.86776993722 922.85155410376 L 1237.46151993722 922.85155410376 C 1239.21151993722 922.85155410376 1240.69589493722 923.36717910376 1241.91464493722 924.39842910376 C 1243.13339493722 925.42967910376 1243.74276993722 926.69530410376 1243.74276993722 928.19530410376 Z M 1276.08651993722 908.50780410376 C 1277.83651993722 908.50780410376 1279.33651993722 909.08592910376 1280.58651993722 910.24217910376 C 1281.83651993722 911.39842910376 1282.49276993722 912.85155410376 1282.55526993722 914.60155410376 L 1282.55526993722 922.75780410376 L 1314.43026993722 922.75780410376 C 1316.18026993722 922.75780410376 1317.68026993722 923.35155410376 1318.93026993722 924.53905410376 C 1320.11776993722 925.78905410376 1320.71151993722 927.28905410376 1320.71151993722 929.03905410376 C 1320.71151993722 930.78905410376 1320.10214493722 932.27342910376 1318.88339493722 933.49217910376 C 1317.66464493722 934.71092910376 1316.18026993722 935.32030410376 1314.43026993722 935.32030410376 L 1282.55526993722 935.32030410376 L 1282.55526993722 937.19530410376 C 1282.49276993722 939.75780410376 1282.66464493722 942.11717910376 1283.07089493722 944.27342910376 C 1283.47714493722 946.42967910376 1284.46151993722 948.35155410376 1286.02401993722 950.03905410376 C 1287.58651993722 951.72655410376 1289.55526993722 952.63280410376 1291.93026993722 952.75780410376 L 1314.80526993722 952.75780410376 C 1316.55526993722 952.82030410376 1318.00839493722 953.47655410376 1319.16464493722 954.72655410376 C 1320.32089493722 955.97655410376 1320.89901993722 957.47655410376 1320.89901993722 959.22655410376 C 1320.83651993722 960.91405410376 1320.22714493722 962.33592910376 1319.07089493722 963.49217910376 C 1317.91464493722 964.64842910376 1316.49276993722 965.25780410376 1314.80526993722 965.32030410376 L 1288.74276993722 965.32030410376 C 1284.36776993722 965.07030410376 1280.75839493722 963.58592910376 1277.91464493722 960.86717910376 C 1275.07089493722 958.14842910376 1273.02401993722 954.82030410376 1271.77401993722 950.88280410376 C 1270.58651993722 946.94530410376 1269.96151993722 942.75780410376 1269.89901993722 938.32030410376 L 1269.89901993722 935.32030410376 L 1259.11776993722 935.32030410376 C 1257.36776993722 935.32030410376 1255.89901993722 934.69530410376 1254.71151993722 933.44530410376 C 1253.46151993722 932.25780410376 1252.83651993722 930.78905410376 1252.83651993722 929.03905410376 C 1252.83651993722 927.28905410376 1253.44589493722 925.80467910376 1254.66464493722 924.58592910376 C 1255.88339493722 923.36717910376 1257.36776993722 922.75780410376 1259.11776993722 922.75780410376 L 1269.89901993722 922.75780410376 L 1269.89901993722 914.60155410376 C 1269.96151993722 912.91405410376 1270.58651993722 911.49217910376 1271.77401993722 910.33592910376 C 1272.96151993722 909.17967910376 1274.39901993722 908.57030410376 1276.08651993722 908.50780410376 Z"/></svg>